# xmcd CD database file
#
# Track frame offsets:
#	150
#	14165
#	32438
#	50815
#	71967
#	93365
#	115851
#	141388
#	157883
#	178295
#	200004
#	221521
#
# Disc length: 3165 seconds
#
# Revision: 1
# Processed by: cddbd v1.5.2PL0 Copyright (c) Steve Scherf et al.
# Submitted via: CDex 1.72
#
DISCID=b80c5b0c
DTITLE=Chilco, Zoe [CDN-07-Warm In A Cool Place-jzz) - Warm In a Cool Place
DYEAR=2007
DGENRE=Jazz
TTITLE0=On My Way
TTITLE1=Hijack Heaert Attack
TTITLE2=Mr. Alone
TTITLE3=Gypsy Blood
TTITLE4=My Honeyman
TTITLE5=Warm In A Cool Place
TTITLE6=Brand New Lover
TTITLE7=Hi F-eye
TTITLE8=The Pink Room
TTITLE9=On The Beach
TTITLE10=Flower Lover
TTITLE11=Waitin' For Your Smile
EXTD=YEAR: 2007
EXTT0=
EXTT1=
EXTT2=
EXTT3=
EXTT4=
EXTT5=
EXTT6=
EXTT7=
EXTT8=
EXTT9=
EXTT10=
EXTT11=
PLAYORDER=
